<svg width="152" height="39" viewBox="0 0 152 39" fill="none" xmlns="http://www.w3.org/2000/svg">
<path d="M3.38281 0.0292969C5.37135 -0.218738 7.02889 1.12916 7.54883 3.41113C8.3728 7.03155 9.19338 10.6551 10.0234 14.2725C10.5707 16.6616 11.9968 17.9915 13.9883 17.9824C15.989 17.9763 17.3666 16.668 17.917 14.2451C18.7319 10.6736 19.5589 7.10489 20.3525 3.53027C20.7083 1.9314 21.4628 0.690678 23.0986 0.191406C24.7435 -0.310777 26.048 0.311671 27.1973 1.47559C30.3685 4.68857 33.5459 7.89524 36.7354 11.0898C37.8604 12.214 38.4237 13.498 37.9736 15.0908C37.5084 16.7418 36.3133 17.5537 34.7109 17.9121C31.1109 18.7238 27.5259 19.5905 23.9229 20.3838C22.2079 20.7636 20.9028 21.5907 20.4346 23.3643C19.942 25.2174 20.7542 26.6024 22.1377 27.7725C23.6093 29.016 25.0418 30.305 26.4678 31.6006C27.8695 32.8718 28.2979 34.4409 27.6533 36C26.9783 37.6324 25.7131 38.4131 23.9648 38.4131C20.678 38.4131 17.3942 38.4351 14.1074 38.4014C12.3195 38.383 11.0268 37.4668 10.4521 35.9414C9.88659 34.4344 10.2824 32.8843 11.6143 31.6621C13.1831 30.2226 14.8032 28.8409 16.3721 27.4014C18.2298 25.6953 18.3518 23.2636 16.7041 21.6064C15.0378 19.9309 12.6441 20.0502 10.9443 21.9248C9.64913 23.3521 8.35407 24.7828 7.13184 26.2744C5.88521 27.7967 4.41043 28.55 2.47363 27.8945C0.761735 27.3156 0.0109642 25.9095 0.00488281 23.459C-0.00119796 20.353 0.00488281 17.2467 0.00488281 14.1377C0.00488188 10.8266 -0.00739027 7.51814 0.0078125 4.20703C0.0170812 1.87927 1.32136 0.286585 3.38281 0.0292969ZM121.562 11.4922C123.131 11.4923 124.48 11.8134 125.611 12.4561C126.743 13.0731 127.527 13.9345 127.964 15.04H128.118V11.8779H131.848L131.792 11.751H136.382L140.238 21.0449L141.974 25.21H142.32L143.863 21.0449L147.372 11.751H152L142.899 33.1543C142.437 34.3112 141.909 35.1984 141.317 35.8154C140.726 36.4322 140.045 36.8565 139.274 37.0879C138.529 37.345 137.642 37.4736 136.613 37.4736C136.099 37.4736 135.572 37.4345 135.032 37.3574C134.492 37.306 134.055 37.2288 133.721 37.126V33.7324H136.382C137.179 33.7324 137.77 33.617 138.155 33.3857C138.541 33.1801 138.901 32.7302 139.235 32.0361L139.959 30.4004L131.975 12.168V29.6553C131.975 31.532 131.614 33.0749 130.895 34.2832C130.175 35.5173 129.146 36.4435 127.81 37.0605C126.498 37.6776 124.904 37.9854 123.027 37.9854C121.228 37.9853 119.659 37.7033 118.322 37.1377C117.011 36.5721 115.996 35.7487 115.276 34.6689C114.557 33.6149 114.196 32.3169 114.196 30.7744H118.361C118.361 31.6484 118.49 32.3423 118.747 32.8564C119.004 33.3706 119.48 33.7308 120.174 33.9365C120.868 34.1679 121.858 34.2832 123.144 34.2832C124.403 34.2832 125.367 34.1421 126.035 33.8594C126.704 33.5766 127.167 33.101 127.424 32.4326C127.681 31.7642 127.81 30.8379 127.81 29.6553V25.8379H127.655C127.218 26.7634 126.46 27.5601 125.38 28.2285C124.3 28.8969 122.976 29.2314 121.408 29.2314C118.76 29.2314 116.728 28.4348 115.314 26.8408C113.9 25.2211 113.193 23.0608 113.193 20.3613C113.193 17.662 113.914 15.5158 115.354 13.9219C116.793 12.3022 118.863 11.4922 121.562 11.4922ZM75.8721 21.0449L77.6074 25.21H77.9541L79.4971 21.0449L83.0059 11.751H87.6338L78.5322 33.1543C78.0695 34.3112 77.5425 35.1984 76.9512 35.8154C76.3599 36.4323 75.6784 36.8565 74.9072 37.0879C74.1618 37.3449 73.2751 37.4736 72.2471 37.4736C71.7329 37.4736 71.2049 37.4346 70.665 37.3574C70.1254 37.306 69.6886 37.2288 69.3545 37.126V33.7324H72.0156C72.8123 33.7324 73.4035 33.617 73.7891 33.3857C74.1747 33.1801 74.5349 32.7302 74.8691 32.0361L75.5928 30.4004L67.4258 11.751H72.0156L75.8721 21.0449ZM103.044 11.3652C104.998 11.3652 106.669 11.7893 108.058 12.6377C109.472 13.4604 110.551 14.6173 111.297 16.1084C112.068 17.5995 112.454 19.3349 112.454 21.3145C112.454 23.2941 112.068 25.0427 111.297 26.5596C110.551 28.0505 109.471 29.22 108.058 30.0684C106.669 30.8911 104.998 31.3027 103.044 31.3027C101.09 31.3027 99.3928 30.8911 97.9531 30.0684C96.5136 29.22 95.4079 28.0505 94.6367 26.5596C93.8654 25.0427 93.4805 23.2941 93.4805 21.3145C93.4805 19.3349 93.8655 17.5995 94.6367 16.1084C95.4079 14.6174 96.5136 13.4604 97.9531 12.6377C99.3928 11.7893 101.09 11.3652 103.044 11.3652ZM55.1543 5.0791C57.8279 5.07916 60.1419 5.60612 62.0957 6.66016C64.0752 7.68851 65.5924 9.16662 66.6465 11.0947C67.7006 13.0229 68.2275 15.3243 68.2275 17.998C68.2275 20.6718 67.7006 22.9732 66.6465 24.9014C65.5924 26.8296 64.0753 28.3209 62.0957 29.375C60.1419 30.4033 57.8279 30.9169 55.1543 30.917H45.9756V5.0791H55.1543ZM93.0479 30.917H88.8828V5.0791H93.0479V30.917ZM103.044 15.0674C101.013 15.0674 99.5987 15.5686 98.8018 16.5713C98.0049 17.574 97.6065 19.155 97.6064 21.3145C97.6064 23.4741 98.0048 25.0683 98.8018 26.0967C99.5987 27.0993 101.013 27.6006 103.044 27.6006C105.049 27.6006 106.451 27.0994 107.248 26.0967C108.045 25.0683 108.443 23.474 108.443 21.3145C108.443 19.1551 108.045 17.574 107.248 16.5713C106.451 15.5686 105.049 15.0674 103.044 15.0674ZM50.1406 27.1377H55.1543C57.2109 27.1377 58.8692 26.8423 60.1289 26.251C61.4143 25.6596 62.3397 24.6952 62.9053 23.3584C63.4965 21.9958 63.792 20.209 63.792 17.998C63.792 15.7871 63.4966 14.0127 62.9053 12.6758C62.3397 11.3134 61.4142 10.3364 60.1289 9.74512C58.8692 9.12813 57.2109 8.81938 55.1543 8.81934H50.1406V27.1377ZM122.526 15.04C121.318 15.04 120.328 15.2068 119.557 15.541C118.811 15.8752 118.258 16.4413 117.898 17.2383C117.539 18.0095 117.358 19.0504 117.358 20.3613C117.358 21.3382 117.461 22.174 117.667 22.8682C117.873 23.5366 118.194 24.0769 118.631 24.4883C119.068 24.8996 119.621 25.2084 120.289 25.4141C120.958 25.594 121.729 25.6836 122.604 25.6836C123.658 25.6836 124.571 25.5168 125.342 25.1826C126.113 24.8227 126.717 24.2956 127.154 23.6016C127.537 22.9941 127.751 22.2386 127.799 21.3359L127.81 20.9404V19.7451L127.799 19.3486C127.751 18.4462 127.537 17.6913 127.154 17.084C126.717 16.3898 126.1 15.8752 125.303 15.541C124.506 15.2068 123.58 15.0401 122.526 15.04Z" fill="white"></path>
</svg>
